# xmcd
#
# Track frame offsets: 
#        150
#        12677
#        27672
#        43707
#        67530
#        94677
#        110070
#        122332
#        143107
#        161595
#        172020
#        201117
#        225637
#        245075
#        263042
#        282512
#
# Disc length: 4472 seconds
#
# Revision: 11
# Processed by: cddbd v1.5.2PL0 Copyright (c) Steve Scherf et al.
# Submitted via: ExactAudioCopy v0.99pb4
#
DISCID=e4117610
DTITLE=Louis Armstrong - Louis Armstrong Meets Oscar Peterson
DYEAR=1957
DGENRE=Jazz
TTITLE0=That Old Feeling
TTITLE1=Let's Fall in Love
TTITLE2=I'll Never Be the Same
TTITLE3=Blues in the Night (My Mama Done Tol' Me)
TTITLE4=How Long Has This Been Going On?
TTITLE5=I Was Doing All Right
TTITLE6=What's New?
TTITLE7=Moon Song
TTITLE8=Just One of Those Things
TTITLE9=There's No You
TTITLE10=You Go to My Head
TTITLE11=Sweet Lorraine
TTITLE12=I Get a Kick Out of You
TTITLE13=Makin' Whoopee
TTITLE14=Willow Weep for Me
TTITLE15=Let's Do It
EXTD=
EXTT0=
EXTT1=
EXTT2=
EXTT3=
EXTT4=
EXTT5=
EXTT6=
EXTT7=
EXTT8=
EXTT9=
EXTT10=
EXTT11=
EXTT12=
EXTT13=
EXTT14=
EXTT15=
PLAYORDER=
